<svg preserveAspectRatio="none" width="100%" height="100%" overflow="visible" style="display: block;" viewBox="0 0 32 22" fill="none" xmlns="http://www.w3.org/2000/svg">
<g id="Group">
<path id="Vector" d="M31.6946 2.31853C31.8044 2.43639 31.8248 2.82453 31.8373 2.99267C32.0303 5.56667 31.0311 8.26167 28.9981 9.9101C27.0216 11.4595 24.5275 12.481 22.0805 13.0577C19.8687 13.5778 16.7769 13.7192 15.6099 16.0906C15.2209 16.881 15.1644 18.3629 15.3809 19.2193C15.4123 19.3466 15.657 19.5289 15.7824 19.5524C16.0303 19.631 16.3016 19.4173 16.526 19.279C16.6091 18.0942 16.6389 17.0963 16.1824 15.968C16.5103 15.5421 16.7487 15.3174 17.1864 15.0141C17.8154 16.2367 17.7118 17.596 17.315 18.8783C18.4083 18.1162 19.6063 17.3608 20.3922 16.2655C20.7059 15.8726 20.7636 15.7464 20.7636 15.7464H21.0251H21.2867C20.0507 17.6966 18.035 19.2507 15.8844 20.0679C14.3487 19.4424 13.2146 18.7322 12.0193 17.5583C11.663 17.2083 11.2157 16.7369 10.6667 15.7155C11.223 15.7035 10.8235 15.4798 11.6863 16.5798C12.549 17.6798 13.4373 18.1664 14.5166 18.9003C14.2922 17.3304 14.0915 15.4321 14.9605 14.0335C16.2436 12.0001 18.7895 11.271 21.0577 11.1468C23.8844 10.9912 27.8185 9.78124 29.3558 7.21667C29.2083 7.27167 28.8773 7.59067 28.7518 7.70853C26.835 9.48739 24.3456 9.97767 21.8342 10.3611C20.0083 10.6408 17.9879 11.1578 16.2828 12.0064C17.3213 9.79853 18.7754 8.00239 21.1942 7.26381C21.5503 7.17581 22.0271 7.02339 22.3911 7.00453C25.2805 6.85367 28.5605 6.61481 30.6326 4.30481C31.1644 3.71396 31.4295 3.05081 31.6914 2.31539L31.6946 2.31853Z" fill="var(--fill-0, #0D76BF)"/>
<path id="Vector_2" d="M0.115937 2.17174C0.975545 5.07889 3.40692 6.49946 6.31986 6.67074C11.0195 6.94731 13.3065 7.60889 15.4555 12.0167C15.2281 9.14417 15.752 5.52517 11.5183 6.93946C11.4634 4.26646 12.7748 5.77031 14.2697 5.75146C14.5912 5.74674 14.894 5.57546 15.181 5.42617C15.3128 5.53617 15.4414 5.65089 15.5654 5.76874C17.6108 7.7456 17.3645 10.1436 15.4603 12.0969C11.3567 9.58103 6.60535 11.0409 3.08378 7.7346C2.7779 7.42503 2.52078 7.12764 2.19608 6.83692C2.47843 7.27849 2.62104 7.51774 2.94104 7.92317C6.74966 12.298 11.7803 10.1153 15.5136 12.65C14.9708 13.2157 14.6806 13.6196 14.2728 14.2702C13.0932 13.519 11.3097 13.42 9.97476 13.1167C7.12456 12.4693 3.31437 11.0739 1.57319 8.5816C0.31829 6.7776 -0.266808 4.3246 0.115937 2.17174Z" fill="var(--fill-0, #0D76BF)"/>
<path id="Vector_3" d="M15.8191 0.0015505C16.514 0.295408 17.3423 0.727551 18.1893 1.07169C19.747 1.70184 21.3815 2.1167 23.0505 2.30684C23.7219 2.37912 24.3948 2.37441 25.038 2.45612V6.44406H24.6275H24.2725V3.08941C21.8035 2.98412 19.4913 2.56927 17.2089 1.58398C16.8356 1.42369 16.0784 1.10121 15.7752 0.975837C13.2732 2.30527 10.4952 3.0297 7.66378 3.09255C7.66378 4.24406 7.66378 5.34406 7.68628 6.42712C7.39294 6.43341 7.1179 6.41141 6.823 6.42712L6.81986 2.32884C9.97594 2.54412 13.052 1.40169 15.8207 -2.09263e-05L15.8191 0.0015505Z" fill="var(--fill-0, #0D76BF)"/>
<path id="Vector_4" d="M22.2745 15.3431L23.2676 15.0476C23.1876 15.2378 23.1045 15.4279 23.0182 15.6165C22.9853 15.6935 22.9523 15.7689 22.9162 15.8443C21.6755 18.4875 18.6041 20.9232 15.9013 21.8849C15.7084 21.8079 15.5154 21.7309 15.3225 21.6523C12.295 20.4455 9.87775 18.0711 8.61029 15.0649C8.84559 15.1152 9.25491 15.2441 9.56863 15.3226C10.0392 16.0298 10.3954 16.4823 10.786 16.9899C12.1381 18.7311 13.8981 20.1155 15.9076 21.0175C17.8009 20.1988 19.8888 18.6556 21.1437 17.0135C21.5782 16.4446 21.8635 15.8946 22.2745 15.3431Z" fill="var(--fill-0, #0D76BF)"/>
<path id="Vector_5" d="M27.9158 10.919L27.9691 10.9802C27.7401 13.0152 23.4499 14.791 21.6773 15.1461C20.4883 15.385 19.3589 15.7716 18.1997 16.0717L18.1479 15.9476C18.0554 15.6537 17.875 15.2404 17.7573 14.945C21.7887 13.7051 24.6279 13.7664 27.9173 10.919H27.9158Z" fill="var(--fill-0, #0D76BF)"/>
<path id="Vector_6" d="M3.79903 10.9782C3.94491 11.0442 4.34523 11.3662 4.47072 11.473C7.27228 13.8632 10.8518 13.4526 14.0392 14.9298C13.8794 15.2576 13.7723 15.6799 13.7127 16.0037L13.5686 15.9512C12.4627 15.6008 11.512 15.3499 10.3684 15.1441C8.2445 14.7638 4.38882 13.2694 3.79903 10.9767V10.9782Z" fill="var(--fill-0, #0D76BF)"/>
<path id="Vector_7" d="M14.1777 3.58588C16.5479 3.68803 18.1024 5.67431 19.6617 7.29288C18.9291 7.74231 18.6138 7.96231 18.002 8.57046C17.9534 8.41017 17.9048 8.24831 17.8546 8.08803C17.3934 6.73817 16.3283 4.91374 14.6923 4.92317C14.1574 4.92631 13.8013 5.13217 13.3401 5.36317C12.8162 5.25317 12.6154 5.18403 12.1495 4.92788C12.6593 3.98974 13.0921 3.71051 14.1415 3.5848L14.1777 3.58588Z" fill="var(--fill-0, #0D76BF)"/>
<path id="Vector_8" d="M15.7644 1.65121C16.0781 1.80835 17.5045 2.3746 18.019 2.54117C19.8307 3.12574 21.7162 3.55631 23.6221 3.63017C23.6017 4.16131 23.6078 5.97264 23.6078 6.44406H23.3725C23.3677 6.10253 23.3694 4.35878 23.3725 3.92978C20.6698 3.78835 18.1868 3.29074 15.7758 2.06503C13.6018 3.15246 10.6241 3.76739 8.47057 4.00835C8.47057 4.32264 8.47057 5.18692 8.47057 6.44406C8.23527 6.44406 8.41505 6.45626 8.25902 6.45626C8.25855 5.90626 8.25275 4.34674 8.25902 3.69303C10.6575 3.63331 13.6153 2.72921 15.7644 1.65121Z" fill="var(--fill-0, #0D76BF)"/>
<path id="Vector_9" d="M10.9805 15.7158L10.7302 15.7155L11.327 16.6081L11.8431 16.8941L11.1373 15.9512L10.9805 15.7158Z" stroke="var(--stroke-0, #0D76BF)" stroke-width="0.5"/>
</g>
</svg>